<?xml version="1.0" encoding="UTF-8" standalone="no"?>
<!DOCTYPE svg PUBLIC "-//W3C//DTD SVG 1.1//EN" "http://www.w3.org/Graphics/SVG/1.1/DTD/svg11.dtd">
<svg width="100%" height="100%" viewBox="0 0 128 128" version="1.1" xmlns="http://www.w3.org/2000/svg" xmlns:xlink="http://www.w3.org/1999/xlink" xml:space="preserve" xmlns:serif="http://www.serif.com/" style="fill-rule:evenodd;clip-rule:evenodd;stroke-linejoin:round;stroke-miterlimit:2;">
    <g transform="matrix(1,0,0,1,32,32)">
        <path d="M-16,-32C-24.86,-32 -32,-24.87 -32,-16.01L-32,79.97C-32,88.83 -24.87,95.96 -16,95.96L80,95.96C88.86,95.96 96,88.83 96,79.97L96,-16.01C96,-24.86 88.86,-32 80,-32L-16,-32Z" style="fill:rgb(54,61,82);fill-rule:nonzero;"/>
        <path d="M-16,-32C-24.86,-32 -32,-24.87 -32,-16.01L-32,79.97C-32,88.83 -24.87,95.96 -16,95.96L80,95.96C88.86,95.96 96,88.83 96,79.97L96,-16.01C96,-24.86 88.86,-32 80,-32L-16,-32ZM-16,-28L80,-28C86.64,-28 92,-22.65 92,-16.01L92,79.97C92,86.61 86.65,91.96 80,91.96L-16,91.96C-22.64,91.96 -28,86.61 -28,79.97L-28,-16.01C-28,-22.65 -22.64,-28 -16,-28Z" style="fill-opacity:0.4;fill-rule:nonzero;"/>
        <g transform="matrix(1,0,0,1,-32,-32)">
            <path d="M118.514,93.427L118.514,96.29L112.43,102.374L109.567,102.374L88.358,81.165L66.666,102.857L64.113,102.857L8.945,47.689L8.945,45.135L38.307,15.773L40.861,15.773L118.514,93.427Z" style="fill:rgb(235,235,235);"/>
            <clipPath id="_clip1">
                <path d="M118.514,93.427L118.514,96.29L112.43,102.374L109.567,102.374L88.358,81.165L66.666,102.857L64.113,102.857L8.945,47.689L8.945,45.135L38.307,15.773L40.861,15.773L118.514,93.427Z"/>
            </clipPath>
            <g clip-path="url(#_clip1)">
                <g transform="matrix(1,0,0,1,1.00301,-5.94093)">
                    <path d="M66.526,18.826C66.526,15.973 64.21,13.656 61.357,13.656L51.018,13.656C48.165,13.656 45.849,15.973 45.849,18.826L45.849,112.029C45.849,114.882 48.165,117.198 51.018,117.198L61.357,117.198C64.21,117.198 66.526,114.882 66.526,112.029L66.526,18.826Z" style="fill:rgb(255,255,254);"/>
                </g>
                <g transform="matrix(0.13806,0,0,1,34.9667,-9.10428)">
                    <path d="M66.526,14.37C66.526,13.976 64.21,13.656 61.357,13.656L51.018,13.656C48.165,13.656 45.849,13.976 45.849,14.37L45.849,116.485C45.849,116.879 48.165,117.198 51.018,117.198L61.357,117.198C64.21,117.198 66.526,116.879 66.526,116.485L66.526,14.37Z" style="fill:rgb(255,255,254);"/>
                </g>
                <g transform="matrix(1,0,0,1,-30.0133,29.2417)">
                    <path d="M118.514,93.427L118.514,96.29L112.43,102.374L109.567,102.374L88.358,81.165L66.666,102.857L64.113,102.857L8.945,47.689L8.945,45.135L38.307,15.773L40.861,15.773L118.514,93.427Z" style="fill:rgb(135,184,173);"/>
                </g>
                <g transform="matrix(1,0,0,1,77.4436,43.3611)">
                    <path d="M118.514,93.427L118.514,96.29L112.43,102.374L109.567,102.374L88.358,81.165L66.666,102.857L64.113,102.857L8.945,47.689L8.945,45.135L38.307,15.773L40.861,15.773L118.514,93.427Z" style="fill:rgb(135,184,173);"/>
                </g>
                <g transform="matrix(1,0,0,1,80.3755,46.6787)">
                    <path d="M118.514,93.427L118.514,96.29L112.43,102.374L109.567,102.374L88.358,81.165L66.666,102.857L64.113,102.857L8.945,47.689L8.945,45.135L38.307,15.773L40.861,15.773L118.514,93.427Z" style="fill:rgb(215,255,254);"/>
                </g>
            </g>
        </g>
        <g transform="matrix(0.574294,0.574294,-0.574294,0.574294,21.9862,-29.2227)">
            <circle cx="9.066" cy="34.334" r="4.938" style="fill:rgb(54,61,82);"/>
        </g>
    </g>
</svg>
